# xmcd CD database file
#
# Track frame offsets:
#	150
#	14972
#	32729
#	59340
#	81887
#	101019
#	116174
#	151375
#	163352
#	183865
#	188670
#	203920
#
# Disc length: 3037 seconds
#
# Revision: 0
# Processed by: cddbd v1.5.2PL0 Copyright (c) Steve Scherf et al.
# Submitted via: CDex 1.70beta2
#
DISCID=a60bdb0c
DTITLE=Raulin - Avenel - Dramé - Trio Non Tempéré
DYEAR=2008
DGENRE=Jazz
TTITLE0=Mahama Konate
TTITLE1=Ca n'a rien d'une gavotte
TTITLE2=Miniamba
TTITLE3=Adama
TTITLE4=Malienne
TTITLE5=Les chasseurs
TTITLE6=Diarabi
TTITLE7=Pi-pande
TTITLE8=Avalanche
TTITLE9=Ouaips
TTITLE10=M'oralité
TTITLE11=L'albatros
EXTD=YEAR: 2008
EXTT0=
EXTT1=
EXTT2=
EXTT3=
EXTT4=
EXTT5=
EXTT6=
EXTT7=
EXTT8=
EXTT9=
EXTT10=
EXTT11=
PLAYORDER=
